<?xml version="1.0" encoding="UTF-8"?>
<svg version="1.1" viewBox="0 0 2048 2048" width="512" height="512" xmlns="http://www.w3.org/2000/svg">
<path transform="translate(1492,62)" d="m0 0h72l9 3 5 4 5 8 5 16 14 59 4 15 8 3 26 8 25 10 19 9 20 11 5-2 56-34 15-9 10-4h9l9 4 8 7 42 42 5 9 1 9-3 10-10 17-17 28-15 25-4 7 1 5 12 22 9 19 10 27 7 24 1 2 22 6 54 13 16 5 6 4 5 8 1 3v76l-4 9-7 6-10 4-81 20-4 2-6 23-11 29-12 25-10 18 1 5 17 29 8 13 17 28 5 10 1 3v7l-4 10-9 10-40 40-9 5-10 1-10-3-14-8-26-16-20-12-16-10-5 1-14 8-22 11-23 9-21 7-15 4-8 34-2 20v41l336 1 12 3 13 7 12 11 7 9 6 13 2 8 1 17v929l-1 23-5 15-9 14-8 8-13 8-16 5-12 1h-1509l-2-1v-69l3-13 6-12 8-11 11-9 14-7 6-2 8-1h134v-129l-487-1-13-4-11-6-12-11-9-14-4-10-2-12v-1066l2-10 5-12 7-11 9-9 11-7 11-5 14-2h1e3v-2l-8-1-8-4-7-8-2-5-1-8v-62l2-9 6-9 8-5 18-5 70-17 3-3 7-25 10-26 14-29 8-14-1-5-10-17-14-23-21-35-3-9v-7l4-9 7-8 42-42 9-5 2-1h11l10 4 32 19 26 16 17 10 11-6 21-11 21-9 23-8 21-6h2l2-11 19-77 4-8 4-5 7-4zm22 251-21 3-20 5-16 6-23 12-17 12-14 12-8 8v2h-2l-13 17-10 16-10 21-6 18-4 17-2 15v34l5 29 3 11 5 2h169l14 1 13 4 14 9 10 10 8 14 4 15 1 56 5-1 20-10 15-10 14-11 18-18 10-13 9-14 8-15 8-21 5-19 3-19v-33l-4-25-8-26-11-23-7-11-8-11-11-13-10-10-14-11-15-10-21-11-27-9-21-4-10-1zm-391 238m-179 1309 1 2zm-340 1m24 0v1h20v-1zm41 0v1h233v-1zm244 0v1h15v-1z" fill="#029BFC"/>
<path transform="translate(1010,914)" d="m0 0h585l336 1 12 3 13 7 12 11 7 9 6 13 2 8 1 17v929l-1 23-5 15-9 14-8 8-13 8-16 5-12 1h-918l-15-4-14-8-11-10-7-10-5-11-2-9-1-39v-924l1-9 5-12 8-11 7-8 12-9 11-5z" fill="#585663"/>
<path transform="translate(64,1465)" d="m0 0h879l5 1v429l1 39 3 12 7 13 9 10 10 7 12 6 12 3v1h-591l-2-1v-69l3-13 6-12 8-11 11-9 14-7 6-2 8-1h134v-129l-487-1-13-4-11-6-12-11-9-14-4-10-2-12v-208zm880 395 1 2zm-340 1m24 0v1h20v-1zm41 0v1h233v-1zm244 0v1h15v-1z" fill="#CFD3D5"/>
<path transform="translate(120,552)" d="m0 0h103l24 1v1h-6v2h2l1 5 1 32 5 52 1 15 2 18 2 12 1 12 4 25 4 21 2 10 5 21 4 17 3 16 2 9 4 6-1 5-5 6-60 60-6 5-6 7-6 5-8 10-3 7-1 13 3 10 7 9 105 105 12 6 3 1h10l12-5 5-4 6-10 1-3v-16l-5-10-8-8-7-8-23-23-6-5-7-8-17-17-16-15 1-5 40-40 1 2-1 3 1 3 4 4 16 34 7 17 8 15 4 8 5 12 7 12 6 12 7 12 8 17 6 11 2 7 1 9-14 30-10 22-2 7v14l4 9 5 6 10 5 3 1h14l12-6 7-8 9-17 2-1 3-5 7 6 10 13 9 10v2h2l7 9 11 14 8 9 7 8v2h2l7 8 9 10 7 8 4 4v2l4 2 7 8 23 23 8 7 7 6 5 5 7 6 13 13 6 4v2l4 2 13 11 18 14 34 25 39 26 28 17 25 14 24 14 21 12 22 11 1 3-72 1h-593l-101-1v-3h2l-1-8v-13l1-11v-728l-1-39v-26l-1-14v-21l5-13 8-13 9-9 11-7 11-5z" fill="#018CE9"/>
<path transform="translate(1122,1244)" d="m0 0h678l27 1 13 2 8 6 6 7 3 7 1 7 1 34v254l-2 14-3 7-4 5-10 6-6 2-9 1h-676l-52-1-8-3-9-6-5-8-2-7-1-9-1-42v-243l1-12 3-6 5-6 9-6 12-3z" fill="#E8441F"/>
<path transform="translate(1492,62)" d="m0 0h72l9 3 5 4 5 8 5 16 14 59 4 15 8 3 26 8 25 10 19 9 20 11 5-2 56-34 15-9 10-4h9l9 4 8 7 42 42 5 9 1 9-3 10-10 17-17 28-15 25-4 7 1 5 12 22 9 19 10 27 7 24 1 2 22 6 54 13 16 5 6 4 5 8 1 3v76l-4 9-7 6-10 4-81 20-4 2-6 23-11 29-12 25-10 18 1 5 17 29 8 13 17 28 5 10 1 3v7l-4 10-9 10-40 40-9 5-10 1-10-3-14-8-26-16-20-12-16-10-5 1-14 8-22 11-23 9-21 7-15 4-8 34h-2l-1-15v-43l1-133 24-12 15-10 14-11 17-17 10-13 9-14 8-15 8-21 5-19 3-19v-33l-4-25-8-26-11-23-7-11-8-11-11-13-9-9-14-11-15-10-21-11-27-9-21-4-10-1h-28l-21 3-20 5-16 6-23 12-17 12-14 12-7 7-1 2h-2l-2 4-13 17-10 18-7 15-6 18-4 17-2 15v34l5 29 2 8v4l-2 1h-238v-1h6v-2l-8-1-8-4-7-8-2-5-1-8v-62l2-9 6-9 8-5 18-5 70-17 3-3 7-25 10-26 14-29 8-14-1-5-10-17-14-23-21-35-3-9v-7l4-9 7-8 42-42 9-5 2-1h11l10 4 32 19 26 16 17 10 11-6 21-11 21-9 23-8 21-6h2l2-11 19-77 4-8 4-5 7-4z" fill="#FB4B22"/>
<path transform="translate(1010,914)" d="m0 0h585l336 1 12 3 13 7 12 11 7 9 6 13 2 8 1 17v138l-4 1h-74v-1h-958l-1-14v-136l1-9 5-12 8-11 7-8 12-9 11-5z" fill="#FDBF01"/>
<path transform="translate(1356,551)" d="m0 0 5 1h169l14 1 13 4 14 9 11 11 8 14 4 15 1 56v176l1 21-1 14-1 41h-80v-1l-17-1 2-2-2-1v-2l-5-1-5-5-5-8-2-5h-2l-5-21-2-14-2-36-1-26-1-110-1-5h-662l-26-2-21-6-16-8-11-7-13-11-9-9-11-15-11-23-6-22-2-12v-6l3-1 11-1 381-1h281z" fill="#56BCFE"/>
<path transform="translate(1010,914)" d="m0 0h369v1l-351 1v3l-1 3-8 3 1 8 7 25 3 7 4 9v4h2l8 15v3h2v2l9 1 1-2-1 4-4 9v16l6 12 7 6 7 3 5 1h9l10-3 10-9h3l-2 9v2l21 1 44 3h10l1-3h25l3 3h79l3-2-10-8-3-4 4 2 9 7 8 2h9l10-3 7-1 1 6h637l11 1 5 7v56l-3 4-1 1h5l-1 3h-74v-1h-958l-1-14v-136l1-9 5-12 8-11 7-8 12-9 11-5z" fill="#E9AF04"/>
<path transform="translate(599,1860)" d="m0 0 6 1h318v-1h23l1 29 1 6 1 39 3 12 7 13 9 10 10 7 12 6 12 3v1h-591l-2-1v-69l3-13 6-12 8-11 11-9 14-7 6-2 8-1z" fill="#FBFBFB"/>
<path transform="translate(1853,1264)" d="m0 0h1l2 11 1 11v158l-1 109-9-3-3-3-9-4-13-1-19-6-4-1-29-11-9-4-21-9-30-14-13-5-10-5-30-13-38-17-65-30-1-2-6-3 1-4 11-5h4v-2h2l1-2 5-2 17-9h4v-2l6-3 7-3 10-5 8-3 6-3 10-4 7-3 14-7h5v-2l18-7 3-2h4v-2l5-3h6l1-3h4l1-2 5-2 5-3 4 1 1-3 8-4 7-3 14-7 9-4h2l1-2 10-4 4-2 9-3 2-2 10-4 16-2 4-3 8-1 3-3 5-1 6-2 6-5 7-11 1-4h-2z" fill="#FB4A22"/>
<path transform="translate(599,1733)" d="m0 0h348v156h-1v-29l-23 1h-322l-2-1z" fill="#ABB3BD"/>
<path transform="translate(1189,1245)" d="m0 0h566l49 1v1l-49 1-9 1-9 4-6 6-4 8-4 6-13 8-5 3-4 1-17 7-10 5-17 7-10 4-14 7-15 6-27 12h-4v2l-6 2-3 2-6 2-6 3-15 6-3 1h-3v2l-9 3-10 5-9 4-3 1-2-1v2h-3l-1 2-10 4h-3l-1 2-21 7-2 1h-11l-11-3-8-4-13-5-24-10-13-6-16-7-33-15-15-6-14-7-12-5-26-12-22-10-21-9-8-4-12-5-5-3v-2l-3-1-2-7-2-4 1-5 1-4-3-1-12-1z" fill="#FB4A22"/>
<path transform="translate(1465,1458)" d="m0 0 13 1 10 3 2 2 7 2 12 5 18 7 10 5 26 11 12 6 20 9 14 6 14 7 28 12 24 12 2 2 7 3 13 11 6 3 4 3 7 2 5 6 14 6 13 4 3 4v2h4v4h-365l-102-1-2-7-2-6h-2l-11-14-1-3-5-5-5-8v-8l15-7 33-15 16-8 11-5 40-18 15-7 9-4h2v-2l10-4 9-4 16-6 11-4z" fill="#FC4B23"/>
<path transform="translate(569,710)" d="m0 0h13l9 3 8 6 6 8 2 6v14l-8 19-8 16-19 41-10 21-26 56-10 21-15 33-13 27-11 24-16 34-7 16-7 15-10 21-7 15-8 18-6 12-7 16-7 10-7 6-9 4h-14l-10-4-8-7-4-8-1-3v-14l4-12 13-27 15-33 13-27 26-56 16-34 12-26 16-34 12-26 16-34 12-26 15-32 13-28 8-16 7-8 5-4z" fill="#FBFBFB"/>
<path transform="translate(1553,1702)" d="m0 0h310l10 3 8 6 4 5 4 8 1 3v11l-4 11-6 8-8 5-9 2-22 1h-277l-12-1-12-6-8-9-4-11v-11l6-12 5-5 8-6z" fill="#FAFAFA"/>
<path transform="translate(1068,1697)" d="m0 0h307l8 2 9 6 7 9 3 8v11l-4 11-7 8-7 5-7 2-15 1h-291l-10-2-10-6-6-7-4-9-1-11 3-10 7-9 8-6 4-2z" fill="#F9F9FA"/>
<path transform="translate(1161,1322)" d="m0 0 9 1 12 3 12 5 10 4v2l6 1 10 5 19 8 15 7 18 8 20 9 8 4 8 3 15 7 5 2v2l6 1 17 8 8 3v2l11 3 10 5v2h2v2l2 1v3h-2l-1 2-2 2-7 3-24 12-28 12-11 5-28 12-13 6-20 9-15 7-14 5-4-2-4-8-10-17-9-16-11-21-8-16-5-11-5-13-5-11-6-17-7-22v-9l4-8 5-3z" fill="#FC4B23"/>
<path transform="translate(317,805)" d="m0 0h11l10 3 11 10 4 9v16l-5 10-15 16-71 71 2 4 7 7 8 7 3 3v2l4 2 17 17v2l4 2v2l4 2 28 28 7 8 5 7 2 5v16l-5 10-4 5-10 6-6 2h-10l-12-5-10-9-102-102-5-9-2-7 1-13 5-10 7-8 6-5 6-7 8-7 53-53 7-8h2l2-4h2l2-4 8-8 11-9z" fill="#FCFCFC"/>
<path transform="translate(635,805)" d="m0 0h12l11 4 11 9 99 99 7 10 3 8v11l-4 10-8 10-102 102-11 7-7 2h-9l-11-4-10-9-4-10v-15l5-10 9-10 75-75h2v-5l-15-14-12-12-7-8-38-38-8-7-8-10-3-8v-14l4-9 7-8z" fill="#FCFCFC"/>
<path transform="translate(1073,1834)" d="m0 0 148 1 10 4 9 8 5 10 1 3v11l-4 11-9 10-9 4-6 1h-153l-10-4-7-6-6-10-2-10 1-9 5-10 9-8 10-5z" fill="#F9FAFA"/>
<path transform="translate(1553,1835)" d="m0 0h154l8 2 9 6 6 8 4 11-1 13-6 11-8 7-7 3-5 1h-155l-12-6-7-8-4-9-1-4v-8l4-11 7-8 9-6z" fill="#F9F9FA"/>
<path transform="translate(61,608)" d="m0 0h1l2 29v34l1 35v724l-1 14v17h-2v3h883l2 2h-886z" fill="#22A7FD"/>
<path transform="translate(823,1565)" d="m0 0h9l12 4 9 7 6 11 2 8-1 11-5 10-8 9-6 4-8 2h-10l-10-3-8-6-4-5-5-10-1-4v-10l4-10 4-6 9-8z" fill="#079DFD"/>
<path transform="translate(1075,987)" d="m0 0h12l10 4 8 7 4 6 2 7v13l-5 12-8 8-8 4-5 1h-9l-10-3-8-6-6-9-2-5v-16l4-9 7-8 10-5z" fill="#FBFBFB"/>
<path transform="translate(1299,987)" d="m0 0h13l9 4 7 5 5 7 3 11-1 12-5 10-5 6-8 5-8 2h-9l-10-3-10-9-5-10-1-4v-9l3-10 6-8 7-6z" fill="#FBFBFB"/>
<path transform="translate(1187,987)" d="m0 0h12l8 3 6 4 7 8 3 7v16l-7 14-11 8-8 2h-9l-10-3-10-9-5-9-1-4v-11l3-10 7-9 8-5z" fill="#FBFBFB"/>
<path transform="translate(65,1685)" d="m0 0h2l2 8 6 5 4 5 3 5 5 4 5 5 10 6 5 2 14 1h380l6 1h14l1 1h16l3-2 4 1 7-1 7 2v-2l10 1h7l7 2 10 1v1h-481l-13-4-11-6-12-11-9-14-3-7z" fill="#FBFBFB"/>
<path transform="translate(843,1465)" d="m0 0h100l5 1-1 35-3 2-23-9-27-8-16-6-29-10-11-2-2-2z" fill="#FBFBFB"/>
<path transform="translate(61,1466)" d="m0 0h6l1 6v12l1 3 1 26-1 23-1 31-1 22v4l-1 11v41l1 4h-2l1 7v7l-1 3v14l-1 2h2v2h-2l-1 2-2-12z" fill="#FCFCFC"/>
<path transform="translate(1603,1115)" d="m0 0h47l118 1 38 1 108 1v1h-609v-1l109-1 186-1z" fill="#FEC001"/>
<path transform="translate(947,1120)" d="m0 0h1v333l-1 12-7-1 1-3 4-3 1-30v-304z" fill="#018CE9"/>
<path transform="translate(987,910)" d="m0 0 9 1 1 4-1 1v1l-10 3-12 7-10 9-7 10-3-1-1 2-3-3 5-10 8-10 8-7 7-4z" fill="#058DE8"/>
<path transform="translate(61,608)" d="m0 0h1l2 29v8l-2 15h-1z" fill="#14A2FD"/>
<path transform="translate(273,934)" d="m0 0 4 1-1 4-3 2h-3l-1 3h-2l-1 3-3-3 1-5 5-3z" fill="#079DFD"/>
<path transform="translate(950,1110)" d="m0 0 1 2h6l4 5 3 2-15 1z" fill="#FEC001"/>
<path transform="translate(852,1619)" d="m0 0 2 1-2 6-6 4-5 1-2-2 9-6z" fill="#FAFAFA"/>
<path transform="translate(962,940)" d="m0 0 1 3-3 3-3 6h-2l-1 2 1-7 5-5z" fill="#FABD01"/>
<path transform="translate(349,1061)" d="m0 0 1 3-1 3-5 4h-2v2l-6 1 5-4 5-5z" fill="#33AFFE"/>
<path transform="translate(1597,661)" d="m0 0h1v8l-2 8h-1v-15z" fill="#E85F18"/>
<path transform="translate(968,931)" d="m0 0m-1 1 2 2-4 5-6 4 2-4z" fill="#F0B502"/>
</svg>
